<svg xmlns="http://www.w3.org/2000/svg" width="35" height="34" viewBox="0 0 35 34" fill="none">
    <path d="M10.9825 23.8965C10.8418 23.7558 10.7627 23.565 10.7627 23.366C10.7627 23.167 10.8418 22.9761 10.9825 22.8354L22.4352 11.3827L13.6353 11.3827C13.4386 11.3792 13.2511 11.2987 13.1132 11.1584C12.9753 11.0181 12.898 10.8292 12.898 10.6324C12.898 10.4357 12.9753 10.2468 13.1132 10.1065C13.2511 9.96619 13.4386 9.88565 13.6353 9.88223L24.2466 9.88223C24.4455 9.88226 24.6363 9.96131 24.777 10.102C24.9177 10.2427 24.9968 10.4335 24.9968 10.6324L24.9968 21.2437C24.9985 21.3433 24.9804 21.4423 24.9435 21.5348C24.9065 21.6274 24.8516 21.7116 24.7817 21.7827C24.7119 21.8538 24.6286 21.9102 24.5367 21.9487C24.4448 21.9872 24.3462 22.0071 24.2466 22.0071C24.1469 22.0071 24.0483 21.9872 23.9564 21.9487C23.8645 21.9102 23.7812 21.8538 23.7114 21.7827C23.6416 21.7116 23.5866 21.6274 23.5497 21.5348C23.5127 21.4423 23.4946 21.3433 23.4963 21.2437L23.4963 12.4438L12.0436 23.8965C11.9029 24.0373 11.712 24.1163 11.513 24.1163C11.314 24.1163 11.1232 24.0373 10.9825 23.8965Z" fill="white"/>
</svg>