<svg xmlns="http://www.w3.org/2000/svg" width="14" height="15" viewBox="0 0 14 15" fill="none">
    <path fill-rule="evenodd" clip-rule="evenodd" d="M13.7722 0.699958C13.9181 0.846002 14 1.04397 14 1.25038C14 1.45679 13.9181 1.65475 13.7722 1.8008L1.30989 14.2631C1.16223 14.4007 0.966942 14.4756 0.765155 14.472C0.563368 14.4685 0.37084 14.3867 0.228133 14.244C0.0854259 14.1013 0.00368164 13.9088 0.000121349 13.707C-0.00343895 13.5052 0.0714627 13.3099 0.209047 13.1623L12.6714 0.699958C12.8174 0.554097 13.0154 0.472168 13.2218 0.472168C13.4282 0.472168 13.6262 0.554097 13.7722 0.699958Z" fill="#8D8D9A"/>
    <path fill-rule="evenodd" clip-rule="evenodd" d="M0.22716 0.699328C0.372799 0.55387 0.570219 0.472168 0.776056 0.472168C0.981893 0.472168 1.17931 0.55387 1.32495 0.699328L13.7528 13.1272C13.8291 13.1983 13.8903 13.284 13.9328 13.3793C13.9752 13.4746 13.998 13.5774 13.9999 13.6817C14.0017 13.786 13.9825 13.8896 13.9435 13.9863C13.9044 14.0831 13.8463 14.1709 13.7725 14.2447C13.6987 14.3184 13.6109 14.3766 13.5142 14.4156C13.4174 14.4547 13.3139 14.4739 13.2096 14.472C13.1053 14.4702 13.0024 14.4474 12.9071 14.4049C12.8119 14.3625 12.7261 14.3013 12.655 14.225L0.22716 1.79712C0.081702 1.65148 0 1.45406 0 1.24822C0 1.04239 0.081702 0.844967 0.22716 0.699328Z" fill="#8D8D9A"/>
</svg>