<svg xmlns="http://www.w3.org/2000/svg" width="34" height="34" viewBox="0 0 34 34" fill="none">
    <rect x="0.881836" y="0.00488281" width="33.0145" height="33.0145" rx="16.5073" fill="white"/>
    <path fill-rule="evenodd" clip-rule="evenodd" d="M8.35445 16.338C13.1667 14.2414 16.3755 12.8592 17.9811 12.1914C22.5654 10.2847 23.5179 9.95344 24.1388 9.9425C24.2754 9.94009 24.5807 9.97394 24.7785 10.1344C24.9455 10.2699 24.9914 10.453 25.0134 10.5815C25.0354 10.7099 25.0628 11.0026 25.041 11.2313C24.7926 13.8415 23.7177 20.1757 23.1708 23.0992C22.9394 24.3362 22.4838 24.7509 22.0427 24.7915C21.0841 24.8798 20.3562 24.158 19.4277 23.5494C17.9748 22.597 17.1541 22.0042 15.7438 21.0749C14.114 20.0009 15.1706 19.4106 16.0994 18.4459C16.3424 18.1934 20.5661 14.3517 20.6478 14.0032C20.6581 13.9596 20.6676 13.7971 20.571 13.7113C20.4745 13.6255 20.3321 13.6549 20.2293 13.6782C20.0835 13.7113 17.7626 15.2453 13.2664 18.2804C12.6076 18.7328 12.0109 18.9532 11.4762 18.9416C10.8868 18.9289 9.75309 18.6084 8.91026 18.3344C7.87649 17.9984 7.05487 17.8207 7.12641 17.25C7.16368 16.9528 7.57302 16.6488 8.35445 16.338Z" fill="#434343"/>
</svg>