<svg xmlns="http://www.w3.org/2000/svg" width="17" height="15" viewBox="0 0 17 15" fill="none">
    <path fill-rule="evenodd" clip-rule="evenodd" d="M1.46068 6.41621C5.86403 4.49775 8.80029 3.23298 10.2695 2.6219C14.4642 0.87716 15.3358 0.574079 15.904 0.564072C16.0289 0.56187 16.3083 0.592837 16.4893 0.739685C16.6421 0.86368 16.6841 1.03118 16.7042 1.14874C16.7244 1.2663 16.7494 1.53411 16.7295 1.74336C16.5022 4.13178 15.5186 9.92784 15.0182 12.6029C14.8065 13.7348 14.3896 14.1144 13.9859 14.1515C13.1088 14.2322 12.4427 13.5718 11.5931 13.0149C10.2637 12.1435 9.51266 11.601 8.22223 10.7506C6.73092 9.76786 7.69768 9.22772 8.54757 8.34498C8.76999 8.11397 12.6348 4.59864 12.7096 4.27974C12.719 4.23986 12.7276 4.0912 12.6393 4.01269C12.551 3.93419 12.4206 3.96104 12.3266 3.98239C12.1932 4.01265 10.0695 5.41637 5.95529 8.19356C5.35247 8.60751 4.80645 8.80919 4.31724 8.79862C3.77792 8.78697 2.74049 8.49368 1.96927 8.24299C1.02333 7.9355 0.271516 7.77293 0.336982 7.25073C0.371081 6.97873 0.745647 6.70056 1.46068 6.41621Z" fill="#5062D7"/>
</svg>